<mxfile host="Electron" modified="2024-09-07T06:45:53.493Z" agent="Mozilla/5.0 (Windows NT 10.0; Win64; x64) AppleWebKit/537.36 (KHTML, like Gecko) draw.io/24.1.0 Chrome/120.0.6099.109 Electron/28.1.0 Safari/537.36" etag="xxk8xevLTRRxdlt8D9VX" version="24.1.0" type="device">
  <diagram name="Страница — 1" id="F8176j03YGPwPmSaGmSn">
    <mxGraphModel dx="1434" dy="844" grid="1" gridSize="10" guides="1" tooltips="1" connect="1" arrows="1" fold="1" page="1" pageScale="1" pageWidth="827" pageHeight="1169" math="0" shadow="0">
      <root>
        <mxCell id="0" />
        <mxCell id="1" parent="0" />
        <mxCell id="VaXkx9LtDZOJUEnAMBSt-76" style="edgeStyle=orthogonalEdgeStyle;rounded=0;orthogonalLoop=1;jettySize=auto;html=1;entryX=0.506;entryY=0.138;entryDx=0;entryDy=0;entryPerimeter=0;" edge="1" parent="1" source="VaXkx9LtDZOJUEnAMBSt-2" target="VaXkx9LtDZOJUEnAMBSt-71">
          <mxGeometry relative="1" as="geometry" />
        </mxCell>
        <mxCell id="VaXkx9LtDZOJUEnAMBSt-2" value="Начало" style="strokeWidth=2;html=1;shape=mxgraph.flowchart.terminator;whiteSpace=wrap;" vertex="1" parent="1">
          <mxGeometry x="360" y="60" width="110" height="40" as="geometry" />
        </mxCell>
        <mxCell id="VaXkx9LtDZOJUEnAMBSt-74" style="edgeStyle=orthogonalEdgeStyle;rounded=0;orthogonalLoop=1;jettySize=auto;html=1;entryX=0.5;entryY=0;entryDx=0;entryDy=0;" edge="1" parent="1" source="VaXkx9LtDZOJUEnAMBSt-3" target="VaXkx9LtDZOJUEnAMBSt-4">
          <mxGeometry relative="1" as="geometry" />
        </mxCell>
        <mxCell id="VaXkx9LtDZOJUEnAMBSt-3" value="Заявка на ремонт" style="shape=process;whiteSpace=wrap;html=1;backgroundOutline=1;" vertex="1" parent="1">
          <mxGeometry x="354" y="270" width="120" height="60" as="geometry" />
        </mxCell>
        <mxCell id="VaXkx9LtDZOJUEnAMBSt-77" style="edgeStyle=orthogonalEdgeStyle;rounded=0;orthogonalLoop=1;jettySize=auto;html=1;entryX=0.5;entryY=0;entryDx=0;entryDy=0;" edge="1" parent="1" source="VaXkx9LtDZOJUEnAMBSt-4" target="VaXkx9LtDZOJUEnAMBSt-5">
          <mxGeometry relative="1" as="geometry" />
        </mxCell>
        <mxCell id="VaXkx9LtDZOJUEnAMBSt-4" value="Регистрация заявки" style="shape=process;whiteSpace=wrap;html=1;backgroundOutline=1;" vertex="1" parent="1">
          <mxGeometry x="354" y="370" width="120" height="60" as="geometry" />
        </mxCell>
        <mxCell id="VaXkx9LtDZOJUEnAMBSt-84" style="edgeStyle=orthogonalEdgeStyle;rounded=0;orthogonalLoop=1;jettySize=auto;html=1;entryX=0.5;entryY=0;entryDx=0;entryDy=0;" edge="1" parent="1" source="VaXkx9LtDZOJUEnAMBSt-5" target="VaXkx9LtDZOJUEnAMBSt-83">
          <mxGeometry relative="1" as="geometry" />
        </mxCell>
        <mxCell id="VaXkx9LtDZOJUEnAMBSt-5" value="Обработка заявки" style="shape=process;whiteSpace=wrap;html=1;backgroundOutline=1;" vertex="1" parent="1">
          <mxGeometry x="354" y="470" width="120" height="60" as="geometry" />
        </mxCell>
        <mxCell id="VaXkx9LtDZOJUEnAMBSt-95" style="edgeStyle=orthogonalEdgeStyle;rounded=0;orthogonalLoop=1;jettySize=auto;html=1;entryX=0.5;entryY=0;entryDx=0;entryDy=0;" edge="1" parent="1" source="VaXkx9LtDZOJUEnAMBSt-65" target="VaXkx9LtDZOJUEnAMBSt-94">
          <mxGeometry relative="1" as="geometry" />
        </mxCell>
        <mxCell id="VaXkx9LtDZOJUEnAMBSt-65" value="Исполнение заявки" style="shape=process;whiteSpace=wrap;html=1;backgroundOutline=1;" vertex="1" parent="1">
          <mxGeometry x="353" y="820" width="120" height="60" as="geometry" />
        </mxCell>
        <mxCell id="VaXkx9LtDZOJUEnAMBSt-109" style="edgeStyle=orthogonalEdgeStyle;rounded=0;orthogonalLoop=1;jettySize=auto;html=1;entryX=0;entryY=0.5;entryDx=0;entryDy=0;" edge="1" parent="1" source="VaXkx9LtDZOJUEnAMBSt-66" target="VaXkx9LtDZOJUEnAMBSt-108">
          <mxGeometry relative="1" as="geometry" />
        </mxCell>
        <mxCell id="VaXkx9LtDZOJUEnAMBSt-110" value="" style="edgeStyle=orthogonalEdgeStyle;rounded=0;orthogonalLoop=1;jettySize=auto;html=1;" edge="1" parent="1" source="VaXkx9LtDZOJUEnAMBSt-66" target="VaXkx9LtDZOJUEnAMBSt-67">
          <mxGeometry relative="1" as="geometry" />
        </mxCell>
        <mxCell id="VaXkx9LtDZOJUEnAMBSt-66" value="Отчётность и информаирование" style="shape=process;whiteSpace=wrap;html=1;backgroundOutline=1;" vertex="1" parent="1">
          <mxGeometry x="335" y="1280" width="156" height="60" as="geometry" />
        </mxCell>
        <mxCell id="VaXkx9LtDZOJUEnAMBSt-111" value="" style="edgeStyle=orthogonalEdgeStyle;rounded=0;orthogonalLoop=1;jettySize=auto;html=1;" edge="1" parent="1" source="VaXkx9LtDZOJUEnAMBSt-67" target="VaXkx9LtDZOJUEnAMBSt-68">
          <mxGeometry relative="1" as="geometry" />
        </mxCell>
        <mxCell id="VaXkx9LtDZOJUEnAMBSt-113" style="edgeStyle=orthogonalEdgeStyle;rounded=0;orthogonalLoop=1;jettySize=auto;html=1;entryX=0;entryY=0.5;entryDx=0;entryDy=0;" edge="1" parent="1" source="VaXkx9LtDZOJUEnAMBSt-67" target="VaXkx9LtDZOJUEnAMBSt-112">
          <mxGeometry relative="1" as="geometry" />
        </mxCell>
        <mxCell id="VaXkx9LtDZOJUEnAMBSt-67" value="Мониторинг и анализ" style="shape=process;whiteSpace=wrap;html=1;backgroundOutline=1;" vertex="1" parent="1">
          <mxGeometry x="353" y="1390" width="120" height="60" as="geometry" />
        </mxCell>
        <mxCell id="VaXkx9LtDZOJUEnAMBSt-68" value="Конец" style="strokeWidth=2;html=1;shape=mxgraph.flowchart.terminator;whiteSpace=wrap;" vertex="1" parent="1">
          <mxGeometry x="358" y="1500" width="110" height="40" as="geometry" />
        </mxCell>
        <mxCell id="VaXkx9LtDZOJUEnAMBSt-75" style="edgeStyle=orthogonalEdgeStyle;rounded=0;orthogonalLoop=1;jettySize=auto;html=1;entryX=0.5;entryY=0;entryDx=0;entryDy=0;" edge="1" parent="1" source="VaXkx9LtDZOJUEnAMBSt-71" target="VaXkx9LtDZOJUEnAMBSt-3">
          <mxGeometry relative="1" as="geometry" />
        </mxCell>
        <mxCell id="VaXkx9LtDZOJUEnAMBSt-71" value="Данные о неисправности оборудования" style="shape=manualInput;whiteSpace=wrap;html=1;" vertex="1" parent="1">
          <mxGeometry x="334" y="140" width="160" height="80" as="geometry" />
        </mxCell>
        <mxCell id="VaXkx9LtDZOJUEnAMBSt-72" value="Система учёта заявок" style="shape=cylinder3;whiteSpace=wrap;html=1;boundedLbl=1;backgroundOutline=1;size=15;" vertex="1" parent="1">
          <mxGeometry x="530" y="360" width="60" height="80" as="geometry" />
        </mxCell>
        <mxCell id="VaXkx9LtDZOJUEnAMBSt-73" style="edgeStyle=orthogonalEdgeStyle;rounded=0;orthogonalLoop=1;jettySize=auto;html=1;entryX=0;entryY=0.5;entryDx=0;entryDy=0;entryPerimeter=0;" edge="1" parent="1" source="VaXkx9LtDZOJUEnAMBSt-4" target="VaXkx9LtDZOJUEnAMBSt-72">
          <mxGeometry relative="1" as="geometry" />
        </mxCell>
        <mxCell id="VaXkx9LtDZOJUEnAMBSt-82" value="" style="edgeStyle=orthogonalEdgeStyle;rounded=0;orthogonalLoop=1;jettySize=auto;html=1;" edge="1" parent="1" source="VaXkx9LtDZOJUEnAMBSt-80" target="VaXkx9LtDZOJUEnAMBSt-5">
          <mxGeometry relative="1" as="geometry" />
        </mxCell>
        <mxCell id="VaXkx9LtDZOJUEnAMBSt-80" value="Даннык об исполнителе" style="shape=manualInput;whiteSpace=wrap;html=1;" vertex="1" parent="1">
          <mxGeometry x="150" y="460" width="150" height="80" as="geometry" />
        </mxCell>
        <mxCell id="VaXkx9LtDZOJUEnAMBSt-87" style="edgeStyle=orthogonalEdgeStyle;rounded=0;orthogonalLoop=1;jettySize=auto;html=1;entryX=0.5;entryY=0;entryDx=0;entryDy=0;" edge="1" parent="1" source="VaXkx9LtDZOJUEnAMBSt-83" target="VaXkx9LtDZOJUEnAMBSt-86">
          <mxGeometry relative="1" as="geometry">
            <Array as="points">
              <mxPoint x="530" y="620" />
            </Array>
          </mxGeometry>
        </mxCell>
        <mxCell id="VaXkx9LtDZOJUEnAMBSt-88" value="Да" style="edgeLabel;html=1;align=center;verticalAlign=middle;resizable=0;points=[];" vertex="1" connectable="0" parent="VaXkx9LtDZOJUEnAMBSt-87">
          <mxGeometry x="-0.589" y="-3" relative="1" as="geometry">
            <mxPoint as="offset" />
          </mxGeometry>
        </mxCell>
        <mxCell id="VaXkx9LtDZOJUEnAMBSt-89" style="edgeStyle=orthogonalEdgeStyle;rounded=0;orthogonalLoop=1;jettySize=auto;html=1;entryX=0;entryY=0.5;entryDx=0;entryDy=0;" edge="1" parent="1" source="VaXkx9LtDZOJUEnAMBSt-83" target="VaXkx9LtDZOJUEnAMBSt-92">
          <mxGeometry relative="1" as="geometry">
            <mxPoint x="390" y="740" as="targetPoint" />
            <Array as="points">
              <mxPoint x="310" y="620" />
              <mxPoint x="310" y="740" />
            </Array>
          </mxGeometry>
        </mxCell>
        <mxCell id="VaXkx9LtDZOJUEnAMBSt-91" value="Нет" style="edgeLabel;html=1;align=center;verticalAlign=middle;resizable=0;points=[];" vertex="1" connectable="0" parent="VaXkx9LtDZOJUEnAMBSt-89">
          <mxGeometry x="-0.8232" y="-1" relative="1" as="geometry">
            <mxPoint as="offset" />
          </mxGeometry>
        </mxCell>
        <mxCell id="VaXkx9LtDZOJUEnAMBSt-83" value="Доп инфа или уточнение" style="rhombus;whiteSpace=wrap;html=1;" vertex="1" parent="1">
          <mxGeometry x="354" y="570" width="120" height="100" as="geometry" />
        </mxCell>
        <mxCell id="VaXkx9LtDZOJUEnAMBSt-90" style="edgeStyle=orthogonalEdgeStyle;rounded=0;orthogonalLoop=1;jettySize=auto;html=1;entryX=1;entryY=0.5;entryDx=0;entryDy=0;" edge="1" parent="1" source="VaXkx9LtDZOJUEnAMBSt-86" target="VaXkx9LtDZOJUEnAMBSt-92">
          <mxGeometry relative="1" as="geometry">
            <mxPoint x="430" y="740" as="targetPoint" />
          </mxGeometry>
        </mxCell>
        <mxCell id="VaXkx9LtDZOJUEnAMBSt-86" value="Уточнение проблемы" style="shape=process;whiteSpace=wrap;html=1;backgroundOutline=1;" vertex="1" parent="1">
          <mxGeometry x="470" y="710" width="120" height="60" as="geometry" />
        </mxCell>
        <mxCell id="VaXkx9LtDZOJUEnAMBSt-93" style="edgeStyle=orthogonalEdgeStyle;rounded=0;orthogonalLoop=1;jettySize=auto;html=1;entryX=0.5;entryY=0;entryDx=0;entryDy=0;" edge="1" parent="1" source="VaXkx9LtDZOJUEnAMBSt-92" target="VaXkx9LtDZOJUEnAMBSt-65">
          <mxGeometry relative="1" as="geometry" />
        </mxCell>
        <mxCell id="VaXkx9LtDZOJUEnAMBSt-92" value="" style="ellipse;whiteSpace=wrap;html=1;aspect=fixed;" vertex="1" parent="1">
          <mxGeometry x="403" y="730" width="20" height="20" as="geometry" />
        </mxCell>
        <mxCell id="VaXkx9LtDZOJUEnAMBSt-97" style="edgeStyle=orthogonalEdgeStyle;rounded=0;orthogonalLoop=1;jettySize=auto;html=1;entryX=0.5;entryY=0;entryDx=0;entryDy=0;" edge="1" parent="1" source="VaXkx9LtDZOJUEnAMBSt-94" target="VaXkx9LtDZOJUEnAMBSt-96">
          <mxGeometry relative="1" as="geometry" />
        </mxCell>
        <mxCell id="VaXkx9LtDZOJUEnAMBSt-98" value="Да" style="edgeLabel;html=1;align=center;verticalAlign=middle;resizable=0;points=[];" vertex="1" connectable="0" parent="VaXkx9LtDZOJUEnAMBSt-97">
          <mxGeometry x="-0.32" y="2" relative="1" as="geometry">
            <mxPoint as="offset" />
          </mxGeometry>
        </mxCell>
        <mxCell id="VaXkx9LtDZOJUEnAMBSt-100" style="edgeStyle=orthogonalEdgeStyle;rounded=0;orthogonalLoop=1;jettySize=auto;html=1;entryX=0;entryY=0.5;entryDx=0;entryDy=0;" edge="1" parent="1" source="VaXkx9LtDZOJUEnAMBSt-94" target="VaXkx9LtDZOJUEnAMBSt-99">
          <mxGeometry relative="1" as="geometry">
            <Array as="points">
              <mxPoint x="270" y="960" />
              <mxPoint x="270" y="1100" />
            </Array>
          </mxGeometry>
        </mxCell>
        <mxCell id="VaXkx9LtDZOJUEnAMBSt-101" value="Нет" style="edgeLabel;html=1;align=center;verticalAlign=middle;resizable=0;points=[];" vertex="1" connectable="0" parent="VaXkx9LtDZOJUEnAMBSt-100">
          <mxGeometry x="-0.7944" y="2" relative="1" as="geometry">
            <mxPoint y="-2" as="offset" />
          </mxGeometry>
        </mxCell>
        <mxCell id="VaXkx9LtDZOJUEnAMBSt-94" value="Заказ запчастей или координации?" style="rhombus;whiteSpace=wrap;html=1;" vertex="1" parent="1">
          <mxGeometry x="328" y="910" width="170" height="100" as="geometry" />
        </mxCell>
        <mxCell id="VaXkx9LtDZOJUEnAMBSt-102" style="edgeStyle=orthogonalEdgeStyle;rounded=0;orthogonalLoop=1;jettySize=auto;html=1;entryX=1;entryY=0.5;entryDx=0;entryDy=0;" edge="1" parent="1" source="VaXkx9LtDZOJUEnAMBSt-96" target="VaXkx9LtDZOJUEnAMBSt-99">
          <mxGeometry relative="1" as="geometry">
            <Array as="points">
              <mxPoint x="610" y="1100" />
            </Array>
          </mxGeometry>
        </mxCell>
        <mxCell id="VaXkx9LtDZOJUEnAMBSt-96" value="Связь со специалистами" style="shape=process;whiteSpace=wrap;html=1;backgroundOutline=1;" vertex="1" parent="1">
          <mxGeometry x="530" y="1000" width="156" height="60" as="geometry" />
        </mxCell>
        <mxCell id="VaXkx9LtDZOJUEnAMBSt-99" value="" style="ellipse;whiteSpace=wrap;html=1;aspect=fixed;" vertex="1" parent="1">
          <mxGeometry x="393" y="1080" width="40" height="40" as="geometry" />
        </mxCell>
        <mxCell id="VaXkx9LtDZOJUEnAMBSt-107" style="edgeStyle=orthogonalEdgeStyle;rounded=0;orthogonalLoop=1;jettySize=auto;html=1;entryX=0.5;entryY=0;entryDx=0;entryDy=0;" edge="1" parent="1" source="VaXkx9LtDZOJUEnAMBSt-103" target="VaXkx9LtDZOJUEnAMBSt-66">
          <mxGeometry relative="1" as="geometry" />
        </mxCell>
        <mxCell id="VaXkx9LtDZOJUEnAMBSt-103" value="&lt;div&gt;&lt;br&gt;&lt;/div&gt;Изменение статуса заявки" style="shape=manualInput;whiteSpace=wrap;html=1;" vertex="1" parent="1">
          <mxGeometry x="344.5" y="1150" width="137" height="80" as="geometry" />
        </mxCell>
        <mxCell id="VaXkx9LtDZOJUEnAMBSt-104" style="edgeStyle=orthogonalEdgeStyle;rounded=0;orthogonalLoop=1;jettySize=auto;html=1;entryX=0.5;entryY=0.125;entryDx=0;entryDy=0;entryPerimeter=0;" edge="1" parent="1" source="VaXkx9LtDZOJUEnAMBSt-99" target="VaXkx9LtDZOJUEnAMBSt-103">
          <mxGeometry relative="1" as="geometry" />
        </mxCell>
        <mxCell id="VaXkx9LtDZOJUEnAMBSt-105" value="Система учёта заявок" style="shape=cylinder3;whiteSpace=wrap;html=1;boundedLbl=1;backgroundOutline=1;size=15;" vertex="1" parent="1">
          <mxGeometry x="550" y="1150" width="60" height="80" as="geometry" />
        </mxCell>
        <mxCell id="VaXkx9LtDZOJUEnAMBSt-106" style="edgeStyle=orthogonalEdgeStyle;rounded=0;orthogonalLoop=1;jettySize=auto;html=1;entryX=0;entryY=0.5;entryDx=0;entryDy=0;entryPerimeter=0;" edge="1" parent="1" source="VaXkx9LtDZOJUEnAMBSt-103" target="VaXkx9LtDZOJUEnAMBSt-105">
          <mxGeometry relative="1" as="geometry" />
        </mxCell>
        <mxCell id="VaXkx9LtDZOJUEnAMBSt-108" value="Отчёт о выполненной работе" style="shape=document;whiteSpace=wrap;html=1;boundedLbl=1;" vertex="1" parent="1">
          <mxGeometry x="540" y="1270" width="120" height="80" as="geometry" />
        </mxCell>
        <mxCell id="VaXkx9LtDZOJUEnAMBSt-112" value="Отчёт по статистике" style="shape=document;whiteSpace=wrap;html=1;boundedLbl=1;" vertex="1" parent="1">
          <mxGeometry x="530" y="1380" width="120" height="80" as="geometry" />
        </mxCell>
      </root>
    </mxGraphModel>
  </diagram>
</mxfile>
